<svg width="24" height="24" viewBox="0 0 24 24" fill="none" xmlns="http://www.w3.org/2000/svg">
<path opacity="0.3" fill-rule="evenodd" clip-rule="evenodd" d="M4 0H20C22.2092 0 24 1.79077 24 4V20C24 22.2092 22.2092 24 20 24H4C1.79083 24 0 22.2092 0 20V4C0 1.79077 1.79083 0 4 0ZM19.395 7C19.952 7 20.069 7.28662 19.952 7.677C19.718 8.75 17.4735 11.9121 17.4735 11.9121C17.2785 12.2241 17.2005 12.3799 17.4735 12.7314C17.6685 13.0044 18.3125 13.551 18.742 14.0586C19.5335 14.9485 20.1295 15.6995 20.2955 16.2175C20.4475 16.7366 20.1845 17 19.658 17H17.816C17.3227 17 17.0742 16.7236 16.5374 16.1262C16.3098 15.873 16.0303 15.5623 15.6585 15.1904C14.5655 14.1365 14.0975 14 13.824 14C13.453 14 13.3425 14.105 13.3425 14.6316V16.283C13.3425 16.7366 13.1975 17 12.0265 17C10.075 17 7.93048 15.8149 6.40802 13.6289C4.125 10.4285 3.5 8.00854 3.5 7.521C3.5 7.24756 3.60553 7 4.13147 7H5.974C6.44452 7 6.62152 7.20605 6.79852 7.71606C7.69952 10.3406 9.21851 12.634 9.84302 12.634C10.077 12.634 10.1845 12.5259 10.1845 11.9314V9.21851C10.1422 8.44629 9.87238 8.1123 9.67255 7.86499C9.54919 7.71216 9.45251 7.59253 9.45251 7.4231C9.45251 7.28784 9.52826 7.14795 9.6629 7.06763C9.73352 7.02563 9.82037 7 9.92102 7H12.816C13.2065 7 13.3425 7.2085 13.3425 7.677V11.3264C13.3425 11.7166 13.512 11.8535 13.629 11.8535C13.863 11.8535 14.058 11.7166 14.4875 11.2876C15.8145 9.80396 16.7515 7.521 16.7515 7.521C16.8685 7.24756 17.0845 7 17.553 7H19.395Z" fill="#222222"/>
</svg>
