<svg width="24" height="24" viewBox="0 0 24 24" fill="none" xmlns="http://www.w3.org/2000/svg">
<path opacity="0.3" fill-rule="evenodd" clip-rule="evenodd" d="M4 0H20C22.2092 0 24 1.79077 24 4V20C24 22.2092 22.2092 24 20 24H4C1.79083 24 0 22.2092 0 20V4C0 1.79077 1.79083 0 4 0ZM16.5529 14.7002V23.9907H12.8141V14.7002H9.68768V11.0796H12.8141V8.40942C12.8141 5.31079 14.7065 3.62354 17.4708 3.62354C18.7948 3.62354 19.9329 3.72217 20.2646 3.76611V7.00439L18.3473 7.00537C16.844 7.00537 16.5529 7.71973 16.5529 8.76807V11.0796H20.1383L19.6714 14.7002H16.5529Z" fill="#222222"/>
</svg>
