<svg width="16" height="14" viewBox="0 0 16 14" fill="none" xmlns="http://www.w3.org/2000/svg">
<path fill-rule="evenodd" clip-rule="evenodd" d="M13.6 11.6667C13.6 12.096 13.2416 12.4444 12.8 12.4444C12.3584 12.4444 12 12.096 12 11.6667C12 11.2373 12.3584 10.8889 12.8 10.8889C13.2416 10.8889 13.6 11.2373 13.6 11.6667ZM1.59998 9.33333L1.61278 1.55555H10.4L10.3872 9.33333H1.59998ZM4.00002 11.6667C4.00002 12.096 3.64162 12.4444 3.20002 12.4444C2.75842 12.4444 2.40002 12.096 2.40002 11.6667C2.40002 11.2373 2.75842 10.8889 3.20002 10.8889C3.64162 10.8889 4.00002 11.2373 4.00002 11.6667ZM14.4 7.37333V9.33333H12V5.50744L14.4 7.37333ZM15.7 6.39256L12 3.51478V1.55556C12 0.697667 11.3496 0 10.5496 0H1.4496C0.6504 0 0 0.697667 0 1.55556V9.33333C0 10.0123 0.4104 10.5848 0.9768 10.7971C0.8648 11.0662 0.8 11.3587 0.8 11.6667C0.8 12.9531 1.8768 14 3.2 14C4.5232 14 5.6 12.9531 5.6 11.6667C5.6 11.3921 5.5424 11.1331 5.452 10.8889H10.548C10.4576 11.1331 10.4 11.3921 10.4 11.6667C10.4 12.9531 11.4768 14 12.8 14C14.1232 14 15.2 12.9531 15.2 11.6667C15.2 11.3921 15.1424 11.1331 15.052 10.8889H15.2C15.6424 10.8889 16 10.5412 16 10.1111V7C16 6.76356 15.8896 6.54033 15.7 6.39256Z" fill="#231F20"/>
</svg>
