<svg width="24" height="24" viewBox="0 0 24 24" fill="none" xmlns="http://www.w3.org/2000/svg">
<g opacity="0.3">
<path d="M14.667 12.001C14.667 13.4741 13.473 14.668 12 14.668C10.527 14.668 9.33301 13.4741 9.33301 12.001C9.33301 10.5281 10.527 9.33398 12 9.33398C13.473 9.33398 14.667 10.5281 14.667 12.001Z" fill="#222222"/>
<path fill-rule="evenodd" clip-rule="evenodd" d="M15.233 5.48804C14.39 5.44995 14.136 5.43994 12 5.43994C9.86401 5.43994 9.61102 5.448 8.76703 5.48804C7.987 5.52393 7.56403 5.65405 7.28198 5.76392C6.90802 5.90894 6.64203 6.08203 6.362 6.36206C6.21667 6.50732 6.10022 6.64917 6.00153 6.80396C5.90997 6.94751 5.83374 7.10254 5.76398 7.28198C5.65399 7.56396 5.52301 7.98706 5.48798 8.76709C5.45001 9.61011 5.44 9.86401 5.44 12C5.44 14.136 5.45001 14.3899 5.487 15.2319C5.52301 16.012 5.65302 16.4351 5.763 16.717C5.90802 17.0901 6.08099 17.3569 6.36102 17.637C6.64099 17.917 6.90698 18.0901 7.28101 18.2351C7.56299 18.345 7.98602 18.4751 8.76599 18.511C9.60901 18.5491 9.86298 18.5591 11.999 18.5591C14.135 18.5591 14.388 18.552 15.232 18.512C16.012 18.4761 16.435 18.3459 16.717 18.2361C17.091 18.0911 17.357 17.918 17.637 17.6379C17.7719 17.5029 17.882 17.3711 17.976 17.229C18.0772 17.0762 18.1599 16.9114 18.235 16.718C18.345 16.436 18.476 16.0129 18.511 15.2329C18.5244 14.9368 18.5342 14.7134 18.5414 14.4556C18.5548 13.9795 18.559 13.386 18.559 12C18.559 9.86401 18.55 9.61108 18.512 8.76709C18.476 7.98706 18.346 7.56396 18.236 7.28198C18.091 6.90894 17.918 6.64209 17.638 6.36206C17.358 6.08203 17.092 5.90894 16.718 5.76392C16.436 5.65405 16.013 5.52393 15.233 5.48804ZM16.108 12.001C16.108 9.73291 14.27 7.89307 12 7.89307C9.73199 7.89307 7.89203 9.73096 7.89203 12.001C7.89203 14.269 9.72998 16.1089 12 16.1089C14.268 16.1089 16.108 14.271 16.108 12.001ZM16.27 8.68994C16.8 8.68994 17.23 8.26001 17.23 7.72998C17.23 7.19995 16.8 6.77002 16.27 6.77002C15.74 6.77002 15.31 7.19995 15.31 7.72998C15.31 8.26001 15.74 8.68994 16.27 8.68994Z" fill="#222222"/>
<path fill-rule="evenodd" clip-rule="evenodd" d="M4 0H20C22.2092 0 24 1.79077 24 4V20C24 22.2092 22.2092 24 20 24H4C1.79083 24 0 22.2092 0 20V4C0 1.79077 1.79083 0 4 0ZM8.70203 4.0481C9.55499 4.01001 9.82703 4 12 4C14.173 4 14.445 4.00806 15.298 4.0481C16.15 4.08691 16.73 4.22192 17.24 4.41992C17.767 4.625 18.212 4.89795 18.657 5.34302C19.102 5.78711 19.375 6.23389 19.58 6.76001C19.778 7.27002 19.912 7.8501 19.952 8.69995C19.99 9.55493 20 9.8269 20 12C20 14.1731 19.992 14.4451 19.952 15.3C19.913 16.1499 19.778 16.73 19.58 17.24C19.375 17.7671 19.102 18.2129 18.657 18.657C18.212 19.1021 17.766 19.375 17.24 19.5801C16.731 19.7781 16.15 19.9121 15.298 19.9519C14.445 19.99 14.173 20 12 20C9.82703 20 9.55499 19.9919 8.70203 19.9519C7.84998 19.9131 7.27002 19.7781 6.76001 19.5801C6.23297 19.375 5.78802 19.1021 5.34302 18.657C4.89801 18.2129 4.625 17.7661 4.41998 17.24C4.22198 16.73 4.08801 16.1499 4.04797 15.3C4.01001 14.4451 4 14.1721 4 12C4 10.8613 4.0022 10.2449 4.01001 9.79272C4.01715 9.38232 4.02893 9.10718 4.04797 8.69995C4.08698 7.8501 4.22198 7.27002 4.41998 6.76001C4.625 6.23291 4.89801 5.78711 5.34302 5.34302C5.78802 4.89795 6.23401 4.625 6.76001 4.41992C7.26898 4.22192 7.84998 4.08789 8.70203 4.0481Z" fill="#222222"/>
</g>
</svg>
